<svg width="520" height="112" viewBox="0 0 520 112" fill="none" xmlns="http://www.w3.org/2000/svg">
<path d="M237 36L216 78H258L237 36ZM237 43.8272L248.837 67.5H232.989L234.739 63.9998H243.172L237 51.6523L227.327 71.0002H250.586L252.336 74.4998H221.664L237 43.8272Z" fill="#393E46"/>
<path d="M148.17 78V42.6H134.25V36H169.89V42.6H155.97V78H148.17ZM175.744 78V36H193.024C196.744 36 199.924 36.6 202.564 37.8C205.244 39 207.304 40.72 208.744 42.96C210.184 45.2 210.904 47.86 210.904 50.94C210.904 54.02 210.184 56.68 208.744 58.92C207.304 61.12 205.244 62.82 202.564 64.02C199.924 65.18 196.744 65.76 193.024 65.76H180.064L183.544 62.22V78H175.744ZM203.224 78L192.604 62.76H200.944L211.624 78H203.224ZM183.544 63.06L180.064 59.34H192.664C196.104 59.34 198.684 58.6 200.404 57.12C202.164 55.64 203.044 53.58 203.044 50.94C203.044 48.26 202.164 46.2 200.404 44.76C198.684 43.32 196.104 42.6 192.664 42.6H180.064L183.544 38.76V63.06Z" fill="black"/>
<path d="M271.464 78L253.104 36H261.564L277.944 73.98H273.084L289.644 36H297.444L279.144 78H271.464ZM309.076 53.46H329.956V59.88H309.076V53.46ZM309.676 71.46H333.376V78H301.876V36H332.536V42.54H309.676V71.46ZM342.072 78V36H349.872V71.4H371.832V78H342.072ZM396.908 78.6C393.628 78.6 390.608 78.06 387.848 76.98C385.088 75.9 382.688 74.4 380.648 72.48C378.608 70.52 377.028 68.24 375.908 65.64C374.788 63 374.228 60.12 374.228 57C374.228 53.88 374.788 51.02 375.908 48.42C377.028 45.78 378.608 43.5 380.648 41.58C382.688 39.62 385.088 38.1 387.848 37.02C390.608 35.94 393.608 35.4 396.848 35.4C400.128 35.4 403.128 35.94 405.848 37.02C408.608 38.1 411.008 39.62 413.048 41.58C415.088 43.5 416.668 45.78 417.788 48.42C418.908 51.02 419.468 53.88 419.468 57C419.468 60.12 418.908 63 417.788 65.64C416.668 68.28 415.088 70.56 413.048 72.48C411.008 74.4 408.608 75.9 405.848 76.98C403.128 78.06 400.148 78.6 396.908 78.6ZM396.848 71.76C398.968 71.76 400.928 71.4 402.728 70.68C404.528 69.96 406.088 68.94 407.408 67.62C408.728 66.26 409.748 64.7 410.468 62.94C411.228 61.14 411.608 59.16 411.608 57C411.608 54.84 411.228 52.88 410.468 51.12C409.748 49.32 408.728 47.76 407.408 46.44C406.088 45.08 404.528 44.04 402.728 43.32C400.928 42.6 398.968 42.24 396.848 42.24C394.728 42.24 392.768 42.6 390.968 43.32C389.208 44.04 387.648 45.08 386.288 46.44C384.968 47.76 383.928 49.32 383.168 51.12C382.448 52.88 382.088 54.84 382.088 57C382.088 59.12 382.448 61.08 383.168 62.88C383.928 64.68 384.968 66.26 386.288 67.62C387.608 68.94 389.168 69.96 390.968 70.68C392.768 71.4 394.728 71.76 396.848 71.76ZM427.736 78V36H434.156L452.516 66.66H449.156L467.216 36H473.636L473.696 78H466.316L466.256 47.58H467.816L452.456 73.2H448.976L433.376 47.58H435.176V78H427.736ZM492.24 53.46H513.12V59.88H492.24V53.46ZM492.84 71.46H516.54V78H485.04V36H515.7V42.54H492.84V71.46Z" fill="black"/>
<rect width="112" height="112" rx="5" fill="#F12711"/>
<path d="M56.125 64.3262C64.266 64.3262 76.886 55.5492 69.866 40.8272C69.473 40.0032 70.598 39.3102 71.149 40.0372C82.774 55.3922 70.086 72.1092 56.125 72.1092H56.08C42.119 72.1092 29.431 55.3922 41.056 40.0372C41.607 39.3092 42.732 40.0032 42.339 40.8272C35.319 55.5502 48.165 64.3262 56.125 64.3262Z" fill="white"/>
<path d="M66.981 77.1688C76.593 72.6748 86.204 76.8538 86.204 86.2668C86.204 92.6148 80.23 100.552 70.62 95.8008C69.956 95.4728 70.297 94.4798 71.025 94.6178C76.72 95.6998 80.726 91.7788 80.726 87.3588C80.726 80.7958 73.367 81.3468 68.993 83.8508L45.223 95.5158C35.611 100.01 26 95.8308 26 86.4178C26 80.0698 31.974 72.1328 41.584 76.8838C42.248 77.2118 41.907 78.2048 41.179 78.0668C35.484 76.9848 31.478 80.9058 31.478 85.3258C31.478 91.8888 38.837 91.3378 43.211 88.8338L66.982 77.1668L66.981 77.1688Z" fill="white"/>
<path d="M56.102 26C46.545 26 44.637 40.069 50.293 45.744C50.884 46.337 51.829 45.578 51.379 44.872C48.377 40.154 50.839 32.3 56.102 32.309C61.365 32.3 63.827 40.154 60.825 44.871C60.375 45.578 61.32 46.337 61.911 45.743C67.567 40.069 65.659 26 56.102 26Z" fill="white"/>
</svg>
